<svg xmlns="http://www.w3.org/2000/svg" viewBox="0 0 187.52 187.5"><defs><style>.cls-1{fill:none;}</style></defs><title>favicon</title><g id="图层_2" data-name="图层 2"><g id="图层_1-2" data-name="图层 1"><path class="cls-1" d="M40.8,28.1h68.8V84.4H40.8Z"/><path d="M6.4,187.5H143.9a6.3,6.3,0,1,0,0-12.6h-6.3V117.7c4.6-.4,9.6,0,12.8,2,4.7,3,5.8,6.2.3,17.6-6.2,12.6-4,23.7,5.6,28.9a20.29,20.29,0,0,0,9.5,2.4,18.9,18.9,0,0,0,15.3-7.5c3-4.2,4-9.1,4.6-12.9,2.1-13,2.4-28.3.8-46.8a119.26,119.26,0,0,0-6.9-32,96.2,96.2,0,0,0-7.4-14.7c-.9-1.5-1.8-3.1-2.6-4.6,1-1,2.1-2.2,3.1-3.1a62.29,62.29,0,0,0,6.4-7,11.93,11.93,0,0,0,2.1-4.8,12.28,12.28,0,0,0-1.1-7.3c-.9-2.2-1.9-4.5-2.8-6.7l-1.1-2.6.6-.6,7.1-7.1a6.1,6.1,0,0,0,0-8.8,6.19,6.19,0,0,0-8.8,0l-.1.1c-2.3,2.3-4.6,4.7-6.9,7l-3.6,3.6h0l-.8.7c-.7.7-1.5,1.4-2.3,2.2-2.9,2.7-6.1,5.7-8.3,9.9-3.7,7.3-1.1,14.9.6,19.9.8,2.1,1.7,4.2,2.6,6.2,1.5,3.2,3.3,6.3,5.1,9.4a85.72,85.72,0,0,1,6.5,12.8,105.51,105.51,0,0,1,6.2,28.6c1.5,17.5,1.2,31.8-.7,43.8-.4,2.6-1,5.6-2.5,7.6-1.8,2.6-6,2.8-8.6,1.4-4.2-2.3-2.5-8-.3-12.5,3.4-7,11.3-23.4-5-33.7-5.6-3.5-12.9-4.4-19.4-3.9V25a25,25,0,0,0-25-25h-75a25,25,0,0,0-25,25V175H6.3a6.25,6.25,0,1,0,.1,12.5ZM164.3,37.7c-.7-2.6-1-4.8-.1-6.5a12.44,12.44,0,0,1,2.3-3.2c.7,1.7,1.4,3.3,2,4.7l.2.4C168.1,33.9,166,36,164.3,37.7ZM25.2,25A12.5,12.5,0,0,1,37.7,12.5h75A12.5,12.5,0,0,1,125.2,25V175H25.2Z"/><path d="M109.5,25H40.8a3.12,3.12,0,0,0-3.1,3.1V84.4a3.12,3.12,0,0,0,3.1,3.1h68.8a3.12,3.12,0,0,0,3.1-3.1V28.1A3.08,3.08,0,0,0,109.5,25Zm-3.1,56.2H43.9v-50h62.5v50Z"/></g></g></svg>