<?xml version="1.0" encoding="utf-8"?>
<!-- Generator: Adobe Illustrator 23.1.0, SVG Export Plug-In . SVG Version: 6.00 Build 0)  -->
<svg version="1.1" id="图层_1" xmlns="http://www.w3.org/2000/svg" xmlns:xlink="http://www.w3.org/1999/xlink" x="0px" y="0px"
	 viewBox="0 0 26.8 106.9" style="enable-background:new 0 0 26.8 106.9;" xml:space="preserve">
<style type="text/css">
	.st0{fill:#E0EBFE;}
	.st1{fill:#003300;}
</style>
<path class="st0" d="M-315.9-8.1h68.8v56.3h-68.8V-8.1z"/>
<path class="st1" d="M-350.3,151.3h137.5c3.5,0,6.3-2.8,6.3-6.3s-2.8-6.3-6.3-6.3h-6.3V81.5c4.6-0.4,9.6,0,12.8,2
	c4.7,3,5.8,6.2,0.3,17.6c-6.2,12.6-4,23.7,5.6,28.9c3,1.6,6.3,2.4,9.5,2.4c6,0,11.8-2.7,15.3-7.5c3-4.2,4-9.1,4.6-12.9
	c2.1-13,2.4-28.3,0.8-46.8c-1-11.7-3.3-22.5-6.9-32c-2-5.3-4.7-10.1-7.4-14.7c-0.9-1.5-1.8-3.1-2.6-4.6c1-1,2.1-2.2,3.1-3.1
	c3.2-3.2,5.2-5.3,6.4-7c0.7-1,1.8-2.8,2.1-4.8c0.6-3.2-0.5-6-1.1-7.3c-0.9-2.2-1.9-4.5-2.8-6.7l-1.1-2.6l0.6-0.6
	c2.4-2.4,4.7-4.7,7.1-7.1c2.5-2.4,2.5-6.4,0-8.8c-2.5-2.4-6.4-2.5-8.8,0l-0.1,0.1c-2.3,2.3-4.6,4.7-6.9,7l-3.6,3.6l0,0l-0.8,0.7
	c-0.7,0.7-1.5,1.4-2.3,2.2c-2.9,2.7-6.1,5.7-8.3,9.9c-3.7,7.3-1.1,14.9,0.6,19.9c0.8,2.1,1.7,4.2,2.6,6.2c1.5,3.2,3.3,6.3,5.1,9.4
	c2.5,4.3,4.9,8.5,6.5,12.8c3.2,8.4,5.3,18,6.2,28.6c1.5,17.5,1.2,31.8-0.7,43.8c-0.4,2.6-1,5.6-2.5,7.6c-1.8,2.6-6,2.8-8.6,1.4
	c-4.2-2.3-2.5-8-0.3-12.5c3.4-7,11.3-23.4-5-33.7c-5.6-3.5-12.9-4.4-19.4-3.9v-80.2c0-13.8-11.2-25-25-25h-75c-13.8,0-25,11.2-25,25
	v150h-6.3c-3.5,0-6.3,2.8-6.3,6.3S-353.8,151.3-350.3,151.3z M-192.4,1.5c-0.7-2.6-1-4.8-0.1-6.5c0.6-1.2,1.4-2.3,2.3-3.2
	c0.7,1.7,1.4,3.3,2,4.7l0.2,0.4C-188.6-2.3-190.7-0.2-192.4,1.5z M-331.5-11.2c0-6.9,5.6-12.5,12.5-12.5h75
	c6.9,0,12.5,5.6,12.5,12.5v150h-100C-331.5,138.8-331.5-11.2-331.5-11.2z"/>
<path class="st1" d="M-247.2-11.2h-68.7c-1.7,0-3.1,1.4-3.1,3.1v56.3c0,1.7,1.4,3.1,3.1,3.1h68.8c1.7,0,3.1-1.4,3.1-3.1V-8.1
	C-244-9.9-245.4-11.2-247.2-11.2z M-250.3,45h-62.5V-5h62.5V45z"/>
<g>
	<g>
		<g>
			<path d="M0,1.2c2.8,0,5.6,0.2,8.2,1.4c1.3,0.6,2.5,1.4,3.6,2.4c1,1,1.8,2.3,2.3,3.6c1.1,2.7,1.5,5.5,1.7,8.3
				c0.2,2.8,0.1,5.5,0.2,8.3l0.1,8.3l0.1,4.1c0,1.4,0,2.7,0.2,4c0.1,1.3,0.4,2.6,0.8,3.7c0.2,0.6,0.5,1.1,0.8,1.6
				c0.2,0.2,0.3,0.5,0.5,0.7c0.2,0.2,0.4,0.5,0.6,0.7c1.8,1.8,4,3,6.4,3.4l0,0l1.3,0.2v1.3v0.7v0v1.4l-1.4,0.1
				c-2.4,0.1-4.7,1.2-6.2,3c-1.6,1.8-2.4,4.3-2.7,6.9c-0.2,1.3-0.2,2.6-0.2,4l-0.1,4.1l-0.1,8.3c-0.1,2.8,0,5.5-0.2,8.3
				c-0.2,2.8-0.6,5.6-1.7,8.3c-0.5,1.3-1.3,2.6-2.3,3.7c-1,1-2.3,1.8-3.6,2.4c-2.6,1.1-5.5,1.4-8.3,1.4v-0.7
				c2.7-0.1,5.5-0.4,7.9-1.6c1.2-0.6,2.3-1.3,3.2-2.3c0.9-1,1.5-2.1,2-3.3c0.9-2.5,1.2-5.2,1.3-7.9c0.1-2.7-0.1-5.5-0.1-8.2
				l-0.1-8.3L14,69.3c0-1.4-0.1-2.8,0.1-4.3c0.2-2.9,1-5.9,3-8.4c1-1.2,2.2-2.2,3.6-3c1.4-0.7,2.9-1.2,4.5-1.3l-1.4,1.5v0v-0.7
				l1.3,1.5l0,0c-3.1-0.6-5.8-2.3-7.8-4.4c-0.3-0.3-0.5-0.6-0.7-0.8c-0.3-0.3-0.5-0.7-0.7-1c-0.4-0.7-0.7-1.4-0.9-2.2
				c-0.5-1.5-0.7-2.9-0.7-4.4c-0.1-1.4,0-2.9,0-4.2l0.1-4.1l0.1-8.3c0-2.7,0.2-5.5,0.1-8.2c-0.1-2.7-0.4-5.4-1.3-7.9
				c-0.5-1.2-1.1-2.4-2-3.3c-0.9-1-2-1.7-3.2-2.3C5.5,2.3,2.7,1.9,0,1.8V1.2z"/>
		</g>
	</g>
</g>
</svg>
