<?xml version="1.0" encoding="utf-8"?>
<!-- Generator: Adobe Illustrator 23.1.0, SVG Export Plug-In . SVG Version: 6.00 Build 0)  -->
<svg version="1.1" id="图层_1" xmlns="http://www.w3.org/2000/svg" xmlns:xlink="http://www.w3.org/1999/xlink" x="0px" y="0px"
	 viewBox="0 0 200 200" style="enable-background:new 0 0 200 200;" xml:space="preserve">
<style type="text/css">
	.st0{fill:#E0EBFE;}
	.st1{fill:#003300;}
</style>
<path class="st0" d="M46.9,34.4h68.8v56.3H46.9V34.4z"/>
<path class="st1" d="M12.5,193.8H150c3.5,0,6.3-2.8,6.3-6.3s-2.8-6.3-6.3-6.3h-6.3v-57.2c4.6-0.4,9.6,0,12.8,2
	c4.7,3,5.8,6.2,0.3,17.6c-6.2,12.6-4,23.7,5.6,28.9c3,1.6,6.3,2.4,9.5,2.4c6,0,11.8-2.7,15.3-7.5c3-4.2,4-9.1,4.6-12.9
	c2.1-13,2.4-28.3,0.8-46.8c-1-11.7-3.3-22.5-6.9-32c-2-5.3-4.7-10.1-7.4-14.7c-0.9-1.5-1.8-3.1-2.6-4.6c1-1,2.1-2.2,3.1-3.1
	c3.2-3.2,5.2-5.3,6.4-7c0.7-1,1.8-2.8,2.1-4.8c0.6-3.2-0.5-6-1.1-7.3c-0.9-2.2-1.9-4.5-2.8-6.7l-1.1-2.6l0.6-0.6
	c2.4-2.4,4.7-4.7,7.1-7.1c2.5-2.4,2.5-6.4,0-8.8s-6.4-2.5-8.8,0c0,0-0.1,0.1-0.1,0.1c-2.3,2.3-4.6,4.7-6.9,7l-3.6,3.6l0,0l-0.8,0.7
	c-0.7,0.7-1.5,1.4-2.3,2.2c-2.9,2.7-6.1,5.7-8.3,9.9c-3.7,7.3-1.1,14.9,0.6,19.9c0.8,2.1,1.7,4.2,2.6,6.2c1.5,3.2,3.3,6.3,5.1,9.4
	c2.5,4.3,4.9,8.5,6.5,12.8c3.2,8.4,5.3,18,6.2,28.6c1.5,17.5,1.2,31.8-0.7,43.8c-0.4,2.6-1,5.6-2.5,7.6c-1.8,2.6-6,2.8-8.6,1.4
	c-4.2-2.3-2.5-8-0.3-12.5c3.4-7,11.3-23.4-5-33.7c-5.6-3.5-12.9-4.4-19.4-3.9V31.3c0-13.8-11.2-25-25-25h-75c-13.8,0-25,11.2-25,25
	v150h-6.3c-3.5,0-6.3,2.8-6.3,6.3S9,193.8,12.5,193.8z M170.4,44c-0.7-2.6-1-4.8-0.1-6.5c0.6-1.2,1.4-2.3,2.3-3.2
	c0.7,1.7,1.4,3.3,2,4.7l0.2,0.4C174.2,40.2,172.1,42.3,170.4,44z M31.3,31.3c0-6.9,5.6-12.5,12.5-12.5h75c6.9,0,12.5,5.6,12.5,12.5
	v150h-100V31.3z"/>
<path class="st1" d="M115.6,31.3H46.9c-1.7,0-3.1,1.4-3.1,3.1v56.3c0,1.7,1.4,3.1,3.1,3.1h68.8c1.7,0,3.1-1.4,3.1-3.1V34.4
	C118.8,32.6,117.4,31.3,115.6,31.3z M112.5,87.5H50v-50h62.5V87.5z"/>
</svg>
