<svg xmlns="http://www.w3.org/2000/svg" viewBox="0 0 26.79 104.58"><title>combine</title><g id="图层_2" data-name="图层 2"><g id="图层_1-2" data-name="图层 1"><path d="M0,0A20.2,20.2,0,0,1,8.25,1.38a11.64,11.64,0,0,1,3.56,2.4,11.11,11.11,0,0,1,2.33,3.63,26.27,26.27,0,0,1,1.73,8.26c.17,2.81.14,5.53.21,8.29l.15,8.25.07,4.13c0,1.39,0,2.73.17,4a15.93,15.93,0,0,0,.77,3.73A8.44,8.44,0,0,0,18,45.7a6.86,6.86,0,0,0,.5.67c.21.24.42.47.64.69a11.44,11.44,0,0,0,6.38,3.36h0l1.25.23v3.44l-1.38.06a8.81,8.81,0,0,0-6.24,3,12.82,12.82,0,0,0-2.67,6.9,40.13,40.13,0,0,0-.19,4l-.07,4.13-.15,8.28c-.06,2.76,0,5.49-.2,8.31a26.83,26.83,0,0,1-1.71,8.29,11.5,11.5,0,0,1-2.34,3.65,11.47,11.47,0,0,1-3.56,2.42A20.18,20.18,0,0,1,0,104.58v-.68a19.2,19.2,0,0,0,7.87-1.59A10.56,10.56,0,0,0,11,100a10.15,10.15,0,0,0,2-3.35,25.18,25.18,0,0,0,1.33-7.9c.06-2.69-.06-5.48-.09-8.23l-.14-8.28L14,68.11a40.64,40.64,0,0,1,.05-4.26,15.37,15.37,0,0,1,3-8.39,11.94,11.94,0,0,1,3.6-3,12.3,12.3,0,0,1,4.5-1.32l-1.39,1.5V51.9l1.26,1.48h0a14.32,14.32,0,0,1-7.84-4.45c-.26-.28-.5-.56-.74-.85a9.5,9.5,0,0,1-.69-1,10.64,10.64,0,0,1-.94-2.15,18.63,18.63,0,0,1-.75-4.36c-.1-1.44-.05-2.86,0-4.22l.07-4.13L14.27,24c0-2.74.15-5.53.08-8.21A25.17,25.17,0,0,0,13,7.86a10.24,10.24,0,0,0-2-3.34,10.58,10.58,0,0,0-3.17-2.3A19.35,19.35,0,0,0,0,.63Z"/></g></g></svg>